HIERARCHY
ROOT hip
{
  OFFSET 0 0 0
  CHANNELS 6 Xposition Yposition Zposition Zrotation Yrotation Xrotation
  JOINT abdomen
  {
    OFFSET 0 20.6881 -0.73152
    CHANNELS 3 Zrotation Xrotation Yrotation
    JOINT chest
    {
      OFFSET 0 11.7043 -0.48768
      CHANNELS 3 Zrotation Xrotation Yrotation
      JOINT neck
      {
        OFFSET 0 22.1894 -2.19456
        CHANNELS 3 Zrotation Xrotation Yrotation
        JOINT head
        {
          OFFSET -0.24384 7.07133 1.2192
          CHANNELS 3 Zrotation Xrotation Yrotation
          JOINT leftEye
          {
            OFFSET 4.14528 8.04674 8.04672
            CHANNELS 3 Zrotation Xrotation Yrotation
            End Site
            {
              OFFSET 1 0 0
            }
          }
          JOINT rightEye
          {
            OFFSET -3.6576 8.04674 8.04672
            CHANNELS 3 Zrotation Xrotation Yrotation
            End Site
            {
              OFFSET 1 0 0
            }
          }
        }
      }
      JOINT rCollar
      {
        OFFSET -2.68224 19.2634 -4.8768
        CHANNELS 3 Zrotation Xrotation Yrotation
        JOINT rShldr
        {
          OFFSET -8.77824 -1.95073 1.46304
          CHANNELS 3 Zrotation Xrotation Yrotation
          JOINT rForeArm
          {
            OFFSET -28.1742 -1.7115 0.48768
            CHANNELS 3 Zrotation Xrotation Yrotation
            JOINT rHand
            {
              OFFSET -22.5879 0.773209 7.07136
              CHANNELS 3 Zrotation Xrotation Yrotation
              JOINT rThumb1
              {
                OFFSET -1.2192 -0.487915 3.41376
                CHANNELS 3 Zrotation Xrotation Yrotation
                JOINT rThumb2
                {
                  OFFSET -3.37035 -0.52449 3.41376
                  CHANNELS 3 Zrotation Xrotation Yrotation
                  End Site
                  {
                    OFFSET -1.78271 -1.18214 1.43049
                  }
                }
              }
              JOINT rIndex1
              {
                OFFSET -7.75947 0.938293 5.60832
                CHANNELS 3 Zrotation Xrotation Yrotation
                JOINT rIndex2
                {
                  OFFSET -2.54057 -0.884171 1.56538
                  CHANNELS 3 Zrotation Xrotation Yrotation
                  End Site
                  {
                    OFFSET -1.62519 -0.234802 1.16502
                  }
                }
              }
              JOINT rMid1
              {
                OFFSET -8.24714 1.18213 3.41376
                CHANNELS 3 Zrotation Xrotation Yrotation
                JOINT rMid2
                {
                  OFFSET -3.10165 -0.590103 1.0647
                  CHANNELS 3 Zrotation Xrotation Yrotation
                  End Site
                  {
                    OFFSET -2.48547 -0.328903 0.83742
                  }
                }
              }
              JOINT rRing1
              {
                OFFSET -8.82822 0.546677 1.51678
                CHANNELS 3 Zrotation Xrotation Yrotation
                JOINT rRing2
                {
                  OFFSET -2.60934 -0.819778 -0.0198488
                  CHANNELS 3 Zrotation Xrotation Yrotation
                  End Site
                  {
                    OFFSET -2.33842 -0.294052 0.168128
                  }
                }
              }
              JOINT rPinky1
              {
                OFFSET -8.27202 -0.0477905 -0.4584
                CHANNELS 3 Zrotation Xrotation Yrotation
                JOINT rPinky2
                {
                  OFFSET -1.82734 -0.647385 -0.700984
                  CHANNELS 3 Zrotation Xrotation Yrotation
                  End Site
                  {
                    OFFSET -1.69225 -0.51767 -0.607171
                  }
                }
              }
            }
          }
        }
      }
      JOINT lCollar
      {
        OFFSET 2.68224 19.2634 -4.8768
        CHANNELS 3 Zrotation Xrotation Yrotation
        JOINT lShldr
        {
          OFFSET 8.77824 -1.95073 1.46304
          CHANNELS 3 Zrotation Xrotation Yrotation
          JOINT lForeArm
          {
            OFFSET 28.1742 -1.7115 0.48768
            CHANNELS 3 Zrotation Xrotation Yrotation
            JOINT lHand
            {
              OFFSET 22.5879 0.773209 7.07136
              CHANNELS 3 Zrotation Xrotation Yrotation
              JOINT lThumb1
              {
                OFFSET 1.2192 -0.487915 3.41376
                CHANNELS 3 Zrotation Xrotation Yrotation
                JOINT lThumb2
                {
                  OFFSET 3.37035 -0.52449 3.41376
                  CHANNELS 3 Zrotation Xrotation Yrotation
                  End Site
                  {
                    OFFSET 1.78271 -1.18214 1.43049
                  }
                }
              }
              JOINT lIndex1
              {
                OFFSET 7.75947 0.938293 5.60832
                CHANNELS 3 Zrotation Xrotation Yrotation
                JOINT lIndex2
                {
                  OFFSET 2.54057 -0.884171 1.56538
                  CHANNELS 3 Zrotation Xrotation Yrotation
                  End Site
                  {
                    OFFSET 1.62519 -0.234802 1.16502
                  }
                }
              }
              JOINT lMid1
              {
                OFFSET 8.24714 1.18213 3.41376
                CHANNELS 3 Zrotation Xrotation Yrotation
                JOINT lMid2
                {
                  OFFSET 3.10165 -0.590103 1.0647
                  CHANNELS 3 Zrotation Xrotation Yrotation
                  End Site
                  {
                    OFFSET 2.48547 -0.328903 0.83742
                  }
                }
              }
              JOINT lRing1
              {
                OFFSET 8.82822 0.546677 1.51678
                CHANNELS 3 Zrotation Xrotation Yrotation
                JOINT lRing2
                {
                  OFFSET 2.60934 -0.819778 -0.0198488
                  CHANNELS 3 Zrotation Xrotation Yrotation
                  End Site
                  {
                    OFFSET 2.33842 -0.294052 0.168128
                  }
                }
              }
              JOINT lPinky1
              {
                OFFSET 8.27202 -0.0477905 -0.4584
                CHANNELS 3 Zrotation Xrotation Yrotation
                JOINT lPinky2
                {
                  OFFSET 1.82734 -0.647385 -0.700984
                  CHANNELS 3 Zrotation Xrotation Yrotation
                  End Site
                  {
                    OFFSET 1.69225 -0.51767 -0.607171
                  }
                }
              }
            }
          }
        }
      }
    }
  }
  JOINT rButtock
  {
    OFFSET -8.77824 4.35084 1.2192
    CHANNELS 3 Zrotation Xrotation Yrotation
    JOINT rThigh
    {
      OFFSET 0 -1.70687 -2.19456
      CHANNELS 3 Zrotation Xrotation Yrotation
      JOINT rShin
      {
        OFFSET 0 -36.8199 0.73152
        CHANNELS 3 Zrotation Xrotation Yrotation
        JOINT rFoot
        {
          OFFSET 0.73152 -45.1104 -5.12064
          CHANNELS 3 Zrotation Xrotation Yrotation
          End Site
          {
            OFFSET -1.1221 -3.69964 12.103
          }
        }
      }
    }
  }
  JOINT lButtock
  {
    OFFSET 8.77824 4.35084 1.2192
    CHANNELS 3 Zrotation Xrotation Yrotation
    JOINT lThigh
    {
      OFFSET 0 -1.70687 -2.19456
      CHANNELS 3 Zrotation Xrotation Yrotation
      JOINT lShin
      {
        OFFSET 0 -36.8199 0.73152
        CHANNELS 3 Zrotation Xrotation Yrotation
        JOINT lFoot
        {
          OFFSET -0.73152 -45.1104 -5.12064
          CHANNELS 3 Zrotation Xrotation Yrotation
          End Site
          {
            OFFSET 1.1221 -3.69964 12.103
          }
        }
      }
    }
  }
}
MOTION
Frames:	4
Frame Time:	0.00833333
17.9397 -21.0848 -25.7449 66.3672 85.6508 100.791 5.69038 41.0154 3.37511 4.42727 -9.80683 2.89402 6.41456 -6.52342 3.51064 -9.40888 -11.3416 3.60833 -0.0 0.0 0.0 -0.0 0.0 0.0 1.13955e-13 2.84497e-13 9.92832e-14 36.4677 3.17363 73.2786 -12.2086 -5.59597 22.0146 -0.00474927 -1.98191 -0.278649 3.42415e-09 -7.07271e-10 -3.08985e-09 5.92153e-09 -1.22292e-09 -5.3429e-09 3.42417e-09 -7.07268e-10 -3.08987e-09 7.73091 5.47488 0.417314 3.42415e-09 -7.07268e-10 -3.08986e-09 2.90554 0.965183 0.102902 3.42416e-09 -7.07268e-10 -3.08985e-09 10.2786 0.731801 0.0259123 3.42414e-09 -7.07271e-10 -3.08984e-09 2.22167 -0.733487 -0.20892 1.13975e-13 2.84509e-13 9.90449e-14 -4.2725 13.7673 -70.1578 14.8418 -7.65388 -27.2641 1.65863 -33.9542 5.43001 -3.38592e-09 4.51348e-10 4.10156e-09 -5.95234e-09 7.85374e-10 7.00066e-09 -3.38592e-09 4.51348e-10 4.10158e-09 -7.73091 5.47488 -0.417314 -3.38592e-09 4.51346e-10 4.10157e-09 -2.90554 0.965183 -0.102902 -3.38592e-09 4.51343e-10 4.10157e-09 -10.2786 0.731801 -0.0259123 -3.38591e-09 4.51343e-10 4.10157e-09 -2.22167 -0.733487 0.20892 -2.03217e-16 0.0 -3.88251e-19 12.288 -6.79441 -91.3653 -175.177 43.4627 165.49 179.27 -83.7768 -168.116 2.03217e-16 0.0 3.88251e-19 23.8342 -11.9378 82.0435 173.633 54.9448 -158.818 -60.905 -84.9813 -90.9771
18.507 -21.8564 -25.7385 66.518 85.782 100.663 5.32862 41.1154 3.48964 4.2122 -10.1896 2.84357 6.43586 -6.51595 3.56088 -9.43444 -11.3514 3.69881 -0.0 0.0 0.0 -0.0 0.0 0.0 7.15033e-14 1.8285e-13 5.85887e-14 36.958 2.16365 73.4277 -12.2027 -5.59167 22.0032 -0.00358025 -1.72307 -0.242232 1.89851e-09 -3.9323e-10 -1.47319e-09 3.28331e-09 -6.799e-10 -2.5472e-09 1.89852e-09 -3.93227e-10 -1.47321e-09 7.73091 5.47488 0.417314 1.89851e-09 -3.93227e-10 -1.47319e-09 2.90554 0.965183 0.102902 1.89851e-09 -3.93227e-10 -1.47319e-09 10.2786 0.731801 0.0259123 1.8985e-09 -3.93228e-10 -1.47318e-09 2.22167 -0.733487 -0.20892 7.153e-14 1.82865e-13 5.8365e-14 -4.69824 12.6844 -70.6548 14.7318 -7.56029 -27.0388 1.60352 -33.4697 5.33103 -1.21338e-09 2.10893e-10 2.141e-09 -2.15011e-09 3.67398e-10 3.66752e-09 -1.21339e-09 2.10894e-10 2.14101e-09 -7.73091 5.47488 -0.417314 -1.21338e-09 2.10891e-10 2.141e-09 -2.90554 0.965183 -0.102902 -1.21339e-09 2.10888e-10 2.141e-09 -10.2786 0.731801 -0.0259123 -1.21337e-09 2.1089e-10 2.141e-09 -2.22167 -0.733487 0.20892 -2.03217e-16 0.0 -3.88251e-19 11.3095 -7.31337 -91.9251 -175.295 43.0764 166.148 178.421 -83.5864 -168.715 2.03217e-16 0.0 3.88251e-19 24.3909 -13.3546 82.9795 173.689 54.5129 -158.866 -61.541 -84.9832 -92.2098
19.2607 -23.0266 -25.7999 72.2073 85.6634 106.829 5.03358 41.2454 3.51536 3.97531 -10.5338 2.78207 6.45278 -6.50673 3.60519 -9.44866 -11.3939 3.77769 -0.0 0.0 0.0 -0.0 0.0 0.0 3.04711e-14 1.45323e-13 1.5883e-14 37.4872 1.13101 73.6117 -12.191 -5.58334 21.9805 -0.00254735 -1.44414 -0.203007 1.31214e-10 -5.28708e-11 2.55938e-10 2.27277e-10 -9.13465e-11 4.4322e-10 1.31218e-10 -5.28687e-11 2.55926e-10 7.73091 5.47488 0.417314 1.31214e-10 -5.28682e-11 2.55943e-10 2.90554 0.965183 0.102902 1.31224e-10 -5.28676e-11 2.55942e-10 10.2786 0.731801 0.0259123 1.31208e-10 -5.28677e-11 2.55948e-10 2.22167 -0.733487 -0.20892 3.04968e-14 1.45341e-13 1.56741e-14 -5.11598 11.5831 -71.1401 14.6322 -7.47615 -26.8348 1.55441 -33.0248 5.24132 1.0838e-09 -5.43056e-11 -4.146e-11 1.87255e-09 -9.3386e-11 -4.5661e-11 1.08379e-09 -5.43044e-11 -4.14464e-11 -7.73091 5.47488 -0.417314 1.0838e-09 -5.43087e-11 -4.14561e-11 -2.90554 0.965183 -0.102902 1.0838e-09 -5.431e-11 -4.14586e-11 -10.2786 0.731801 -0.0259123 1.08381e-09 -5.43077e-11 -4.14644e-11 -2.22167 -0.733487 0.20892 -2.03217e-16 0.0 -3.88251e-19 10.3207 -8.16388 -92.2793 -175.388 42.7056 166.737 177.482 -83.434 -169.461 2.03217e-16 0.0 3.88251e-19 24.8766 -14.6784 83.9174 173.757 54.1172 -158.979 -61.3665 -85.0122 -92.6877
19.3178 -23.2835 -26.1887 72.1708 85.5403 106.783 5.09747 41.458 3.13017 3.73081 -10.8166 2.70852 6.48303 -6.47403 3.63884 -9.54854 -11.5528 3.81578 -0.0 0.0 0.0 -0.0 0.0 0.0 7.14981e-15 1.55043e-13 -3.08116e-15 38.0125 0.0594908 73.8519 -12.1595 -5.56112 21.9191 -0.00165875 -1.16259 -0.163413 -1.29983e-09 1.70405e-10 1.38397e-09 -2.24674e-09 2.94732e-10 2.39454e-09 -1.29983e-09 1.70406e-10 1.38396e-09 7.73091 5.47488 0.417314 -1.29983e-09 1.70407e-10 1.38398e-09 2.90554 0.965183 0.102902 -1.29982e-09 1.70408e-10 1.38397e-09 10.2786 0.731801 0.0259123 -1.29983e-09 1.70409e-10 1.38398e-09 2.22167 -0.733487 -0.20892 7.16306e-15 1.55061e-13 -3.27995e-15 -5.4898 10.428 -71.6204 14.5426 -7.40077 -26.6524 1.51871 -32.6918 5.17495 2.55381e-09 -2.40199e-10 -1.66702e-09 4.45147e-09 -4.1623e-10 -2.8172e-09 2.5538e-09 -2.40197e-10 -1.66701e-09 -7.73091 5.47488 -0.417314 2.55381e-09 -2.40202e-10 -1.66702e-09 -2.90554 0.965183 -0.102902 2.5538e-09 -2.40202e-10 -1.66702e-09 -10.2786 0.731801 -0.0259123 2.55381e-09 -2.40199e-10 -1.66703e-09 -2.22167 -0.733487 0.20892 -2.03217e-16 0.0 -3.88251e-19 9.40181 -9.36063 -92.9421 -175.386 42.4418 166.684 174.877 -83.3594 -172.185 2.03217e-16 0.0 3.88251e-19 24.88 -15.545 84.255 173.873 53.9074 -159.583 -60.5126 -85.2484 -92.8095
